<svg id="Layer_1" data-name="Layer 1" xmlns="http://www.w3.org/2000/svg" viewBox="0 0 512 512.01"><defs><style>.cls-1{fill:#fc6e51;}.cls-2{fill:#d44215;}</style></defs><path class="cls-1" d="M512,256c0,141.4-114.59,256-256,256S0,397.4,0,256,114.62,0,256,0,512,114.63,512,256Z" transform="translate(0)"/><path class="cls-2" d="M448,213.35c0,29.45-28.65,53.33-64,53.33s-64-23.88-64-53.33S348.67,160,384,160,448,183.88,448,213.35Z" transform="translate(0)"/><path class="cls-2" d="M227,384c0,17.67-19.11,32-42.67,32s-42.67-14.33-42.67-32,19.11-32,42.67-32S227,366.33,227,384Z" transform="translate(0)"/><path class="cls-2" d="M163.83,234.68c0,23.56-23.88,42.67-53.33,42.67s-53.34-19.11-53.34-42.67S81,192,110.5,192,163.83,211.11,163.83,234.68Z" transform="translate(0)"/><path class="cls-2" d="M320,96a11.19,11.19,0,0,0-3.31.53c-.5.17-50.38,16.35-104.25,20.88-51.95,4.36-86.62-7.8-106.57-18.77C87.56,88.58,78,77.64,75.45,74.53Q67.83,82.1,60.86,90.31c5.1,5.78,15.86,16.43,33.41,26.29,32.15,18.09,67.83,23,97.19,23,8.15,0,15.81-.38,22.77-1,55.28-4.64,105.23-20.6,109.09-21.86A10.66,10.66,0,0,0,320,96Z" transform="translate(0)"/><path class="cls-2" d="M506.85,307.44c-9.47,1.92-59.41,11.78-108.69,15.92C297.35,331.83,262.1,311.24,261.76,311A10.66,10.66,0,1,0,250.26,329c1.08.7,11.3,6.95,34.91,11.83,19.18,4,41.45,5.95,66.57,5.95,15.07,0,31.17-.72,48.2-2.14,40.6-3.41,81.6-10.6,101.13-14.31Q504.45,319.08,506.85,307.44Z" transform="translate(0)"/><path class="cls-2" d="M343.54,416a10.63,10.63,0,0,0-5.67,1.64c-.47.29-47.35,29.36-99.71,33.75a417.16,417.16,0,0,1-129.44-9.88,360.07,360.07,0,0,1-41.25-12.34,257.54,257.54,0,0,0,37.14,33.3A442.54,442.54,0,0,0,205,474.1c11.24,0,22.92-.44,34.95-1.45,57.68-4.83,107.19-35.64,109.27-36.94a10.67,10.67,0,0,0-5.67-19.7Z" transform="translate(0)"/></svg>